<?xml version="1.0" encoding="UTF-8"?>
<svg version="1.1" xmlns="http://www.w3.org/2000/svg" width="736" height="552">
<path d="M0 0 C14.85 0 29.7 0 45 0 C45 6.6 45 13.2 45 20 C50.94 20 56.88 20 63 20 C63 13.4 63 6.8 63 0 C98.31 0 133.62 0 170 0 C170 6.93 170 13.86 170 21 C183.53 21 197.06 21 211 21 C211 27.6 211 34.2 211 41 C217.93 41 224.86 41 232 41 C232 47.93 232 54.86 232 62 C238.93 62 245.86 62 253 62 C253 75.86 253 89.72 253 104 C260.26 104 267.52 104 275 104 C275 110.93 275 117.86 275 125 C281.6 125 288.2 125 295 125 C295 145.79 295 166.58 295 188 C288.4 188 281.8 188 275 188 C275 194.6 275 201.2 275 208 C281.6 208 288.2 208 295 208 C295 229.12 295 250.24 295 272 C288.07 272 281.14 272 274 272 C274 278.6 274 285.2 274 292 C267.07 292 260.14 292 253 292 C253 298.93 253 305.86 253 313 C246.07 313 239.14 313 232 313 C232 319.93 232 326.86 232 334 C210.55 334 189.1 334 167 334 C167 327.07 167 320.14 167 313 C147.2 313 127.4 313 107 313 C107 319.93 107 326.86 107 334 C65.09 334 23.18 334 -20 334 C-20.9584336 331.12469919 -21.06656387 329.70950069 -20.87890625 326.76953125 C-20.83580322 326.04612549 -20.7927002 325.32271973 -20.74829102 324.57739258 C-20.68697998 323.66497803 -20.62566895 322.75256348 -20.5625 321.8125 C-20.376875 318.904375 -20.19125 315.99625 -20 313 C-26.93 313 -33.86 313 -41 313 C-41 305.74 -41 298.48 -41 291 C-34.73 291 -28.46 291 -22 291 C-21.11360611 288.34081834 -20.82010975 286.51935359 -20.68359375 283.76953125 C-20.64548584 283.04612549 -20.60737793 282.32271973 -20.56811523 281.57739258 C-20.50346069 280.20877075 -20.50346069 280.20877075 -20.4375 278.8125 C-20.293125 275.904375 -20.14875 272.99625 -20 270 C-13.4 270.33 -6.8 270.66 0 271 C0 257.47 0 243.94 0 230 C-6.6 230 -13.2 230 -20 230 C-20.6978262 225.81304281 -21.12594979 222.4484473 -21.12939453 218.30175781 C-21.13254669 217.20752502 -21.13569885 216.11329224 -21.13894653 214.98590088 C-21.1369223 213.82008484 -21.13489807 212.6542688 -21.1328125 211.453125 C-21.13424759 209.64180084 -21.13424759 209.64180084 -21.13571167 207.79388428 C-21.13639075 205.24881945 -21.13455546 202.70375288 -21.13037109 200.15869141 C-21.12500039 196.25028638 -21.13033488 192.3419953 -21.13671875 188.43359375 C-21.13605829 185.96093725 -21.13477778 183.48828081 -21.1328125 181.015625 C-21.13483673 179.84171204 -21.13686096 178.66779907 -21.13894653 177.45831299 C-21.13579437 176.37668884 -21.13264221 175.2950647 -21.12939453 174.18066406 C-21.12859894 173.22613342 -21.12780334 172.27160278 -21.12698364 171.28814697 C-21 169 -21 169 -20 167 C-26.93 167 -33.86 167 -41 167 C-41 125.42 -41 83.84 -41 41 C-34.07 41 -27.14 41 -20 41 C-20.33 40.01 -20.66 39.02 -21 38 C-21.02172852 36.09887695 -21.02172852 36.09887695 -20.87890625 33.98828125 C-20.83056641 33.23095703 -20.78222656 32.47363281 -20.73242188 31.69335938 C-20.67634766 30.90767578 -20.62027344 30.12199219 -20.5625 29.3125 C-20.51029297 28.51521484 -20.45808594 27.71792969 -20.40429688 26.89648438 C-20.27480978 24.93063478 -20.13809959 22.96526335 -20 21 C-16.23508833 19.74502944 -12.72793525 19.89338352 -8.8125 19.9375 C-6.234375 19.958125 -3.65625 19.97875 -1 20 C-0.67 13.4 -0.34 6.8 0 0 Z " fill="#FCAFCE" transform="translate(209,117)"/>
<path d="M0 0 C14.85 0 29.7 0 45 0 C45 6.6 45 13.2 45 20 C50.94 20 56.88 20 63 20 C63 13.4 63 6.8 63 0 C98.31 0 133.62 0 170 0 C170 6.93 170 13.86 170 21 C183.53 21 197.06 21 211 21 C211 27.6 211 34.2 211 41 C217.93 41 224.86 41 232 41 C232 47.93 232 54.86 232 62 C238.93 62 245.86 62 253 62 C253 75.86 253 89.72 253 104 C260.26 104 267.52 104 275 104 C275 110.93 275 117.86 275 125 C281.6 125 288.2 125 295 125 C295 145.79 295 166.58 295 188 C288.4 188 281.8 188 275 188 C275 194.6 275 201.2 275 208 C281.6 208 288.2 208 295 208 C295 229.12 295 250.24 295 272 C288.07 272 281.14 272 274 272 C274 278.6 274 285.2 274 292 C267.07 292 260.14 292 253 292 C253 298.93 253 305.86 253 313 C246.07 313 239.14 313 232 313 C232 319.93 232 326.86 232 334 C210.55 334 189.1 334 167 334 C167 327.07 167 320.14 167 313 C147.2 313 127.4 313 107 313 C107 319.93 107 326.86 107 334 C65.09 334 23.18 334 -20 334 C-20.9584336 331.12469919 -21.06656387 329.70950069 -20.87890625 326.76953125 C-20.83580322 326.04612549 -20.7927002 325.32271973 -20.74829102 324.57739258 C-20.68697998 323.66497803 -20.62566895 322.75256348 -20.5625 321.8125 C-20.376875 318.904375 -20.19125 315.99625 -20 313 C-26.93 313 -33.86 313 -41 313 C-41 305.74 -41 298.48 -41 291 C-34.73 291 -28.46 291 -22 291 C-21.11360611 288.34081834 -20.82010975 286.51935359 -20.68359375 283.76953125 C-20.64548584 283.04612549 -20.60737793 282.32271973 -20.56811523 281.57739258 C-20.50346069 280.20877075 -20.50346069 280.20877075 -20.4375 278.8125 C-20.293125 275.904375 -20.14875 272.99625 -20 270 C-13.4 270.33 -6.8 270.66 0 271 C0 257.47 0 243.94 0 230 C-6.6 230 -13.2 230 -20 230 C-20.6978262 225.81304281 -21.12594979 222.4484473 -21.12939453 218.30175781 C-21.13254669 217.20752502 -21.13569885 216.11329224 -21.13894653 214.98590088 C-21.1369223 213.82008484 -21.13489807 212.6542688 -21.1328125 211.453125 C-21.13424759 209.64180084 -21.13424759 209.64180084 -21.13571167 207.79388428 C-21.13639075 205.24881945 -21.13455546 202.70375288 -21.13037109 200.15869141 C-21.12500039 196.25028638 -21.13033488 192.3419953 -21.13671875 188.43359375 C-21.13605829 185.96093725 -21.13477778 183.48828081 -21.1328125 181.015625 C-21.13483673 179.84171204 -21.13686096 178.66779907 -21.13894653 177.45831299 C-21.13579437 176.37668884 -21.13264221 175.2950647 -21.12939453 174.18066406 C-21.12859894 173.22613342 -21.12780334 172.27160278 -21.12698364 171.28814697 C-21 169 -21 169 -20 167 C-26.93 167 -33.86 167 -41 167 C-41 125.42 -41 83.84 -41 41 C-34.07 41 -27.14 41 -20 41 C-20.33 40.01 -20.66 39.02 -21 38 C-21.02172852 36.09887695 -21.02172852 36.09887695 -20.87890625 33.98828125 C-20.83056641 33.23095703 -20.78222656 32.47363281 -20.73242188 31.69335938 C-20.67634766 30.90767578 -20.62027344 30.12199219 -20.5625 29.3125 C-20.51029297 28.51521484 -20.45808594 27.71792969 -20.40429688 26.89648438 C-20.27480978 24.93063478 -20.13809959 22.96526335 -20 21 C-16.23508833 19.74502944 -12.72793525 19.89338352 -8.8125 19.9375 C-6.234375 19.958125 -3.65625 19.97875 -1 20 C-0.67 13.4 -0.34 6.8 0 0 Z M2 21 C2 27.93 2 34.86 2 42 C-4.6 42 -11.2 42 -18 42 C-18 83.25 -18 124.5 -18 167 C-11.4 167 -4.8 167 2 167 C2 187.79 2 208.58 2 230 C8.93 230 15.86 230 23 230 C23 236.6 23 243.2 23 250 C29.93 250 36.86 250 44 250 C44 256.93 44 263.86 44 271 C57.86 271 71.72 271 86 271 C86 277.93 86 284.86 86 292 C106.13 292 126.26 292 147 292 C147 285.07 147 278.14 147 271 C153.6 271 160.2 271 167 271 C167 257.47 167 243.94 167 230 C173.93 230 180.86 230 188 230 C188 243.53 188 257.06 188 271 C181.4 271 174.8 271 168 271 C168 277.93 168 284.86 168 292 C174.93 292 181.86 292 189 292 C189 298.93 189 305.86 189 313 C202.86 313 216.72 313 231 313 C231 306.07 231 299.14 231 292 C237.6 292 244.2 292 251 292 C251 285.07 251 278.14 251 271 C258.26 271 265.52 271 273 271 C273 250.54 273 230.08 273 209 C252.54 208.67 232.08 208.34 211 208 C210.67 201.4 210.34 194.8 210 188 C230.79 188 251.58 188 273 188 C273 167.21 273 146.42 273 125 C266.07 125 259.14 125 252 125 C252 118.4 252 111.8 252 105 C244.74 105 237.48 105 230 105 C230 91.14 230 77.28 230 63 C223.07 63 216.14 63 209 63 C209 56.07 209 49.14 209 42 C195.47 42 181.94 42 168 42 C168 35.07 168 28.14 168 21 C134.01 21 100.02 21 65 21 C65 27.93 65 34.86 65 42 C58.07 42 51.14 42 44 42 C44 48.93 44 55.86 44 63 C36.74 63 29.48 63 22 63 C22 56.07 22 49.14 22 42 C28.93 42 35.86 42 43 42 C43 35.07 43 28.14 43 21 C29.47 21 15.94 21 2 21 Z " fill="#080405" transform="translate(209,117)"/>
<path d="M0 0 C14.85 0 29.7 0 45 0 C45 6.6 45 13.2 45 20 C50.94 20 56.88 20 63 20 C63 13.4 63 6.8 63 0 C97.98 0 132.96 0 169 0 C169 0.33 169 0.66 169 1 C134.35 1 99.7 1 64 1 C64.33 7.6 64.66 14.2 65 21 C65.05858607 24.92761015 65.10156941 28.82646271 65.0625 32.75 C65.041875 35.8025 65.02125 38.855 65 42 C58.07 42 51.14 42 44 42 C44 48.93 44 55.86 44 63 C36.74 63 29.48 63 22 63 C22 56.07 22 49.14 22 42 C28.93 42 35.86 42 43 42 C43 35.07 43 28.14 43 21 C29.47 21 15.94 21 2 21 C2 27.93 2 34.86 2 42 C-4.6 42 -11.2 42 -18 42 C-18 83.25 -18 124.5 -18 167 C-11.4 167 -4.8 167 2 167 C2 187.79 2 208.58 2 230 C8.93 230 15.86 230 23 230 C23 236.6 23 243.2 23 250 C29.93 250 36.86 250 44 250 C44 256.93 44 263.86 44 271 C57.86 271 71.72 271 86 271 C86 295.15709459 86 295.15709459 85.5 303.8125 C85.45230469 304.71935547 85.40460938 305.62621094 85.35546875 306.56054688 C85.24188412 308.70729639 85.12177591 310.85369956 85 313 C76.31272581 313.13334118 67.62541479 313.26384594 58.93805027 313.39115143 C54.90000445 313.4504055 50.86197509 313.51048108 46.82397461 313.57275391 C24.88059847 313.91038961 2.94602653 314.06540477 -19 314 C-19 320.27 -19 326.54 -19 333 C22.25 333 63.5 333 106 333 C106 333.33 106 333.66 106 334 C64.42 334 22.84 334 -20 334 C-20.9584336 331.12469919 -21.06656387 329.70950069 -20.87890625 326.76953125 C-20.83580322 326.04612549 -20.7927002 325.32271973 -20.74829102 324.57739258 C-20.68697998 323.66497803 -20.62566895 322.75256348 -20.5625 321.8125 C-20.376875 318.904375 -20.19125 315.99625 -20 313 C-26.93 313 -33.86 313 -41 313 C-41 305.74 -41 298.48 -41 291 C-34.73 291 -28.46 291 -22 291 C-21.11360611 288.34081834 -20.82010975 286.51935359 -20.68359375 283.76953125 C-20.64548584 283.04612549 -20.60737793 282.32271973 -20.56811523 281.57739258 C-20.50346069 280.20877075 -20.50346069 280.20877075 -20.4375 278.8125 C-20.293125 275.904375 -20.14875 272.99625 -20 270 C-13.4 270.33 -6.8 270.66 0 271 C0 257.47 0 243.94 0 230 C-6.6 230 -13.2 230 -20 230 C-20.6978262 225.81304281 -21.12594979 222.4484473 -21.12939453 218.30175781 C-21.13254669 217.20752502 -21.13569885 216.11329224 -21.13894653 214.98590088 C-21.1369223 213.82008484 -21.13489807 212.6542688 -21.1328125 211.453125 C-21.13424759 209.64180084 -21.13424759 209.64180084 -21.13571167 207.79388428 C-21.13639075 205.24881945 -21.13455546 202.70375288 -21.13037109 200.15869141 C-21.12500039 196.25028638 -21.13033488 192.3419953 -21.13671875 188.43359375 C-21.13605829 185.96093725 -21.13477778 183.48828081 -21.1328125 181.015625 C-21.13483673 179.84171204 -21.13686096 178.66779907 -21.13894653 177.45831299 C-21.13579437 176.37668884 -21.13264221 175.2950647 -21.12939453 174.18066406 C-21.12859894 173.22613342 -21.12780334 172.27160278 -21.12698364 171.28814697 C-21 169 -21 169 -20 167 C-26.93 167 -33.86 167 -41 167 C-41 125.42 -41 83.84 -41 41 C-34.07 41 -27.14 41 -20 41 C-20.33 40.01 -20.66 39.02 -21 38 C-21.02172852 36.09887695 -21.02172852 36.09887695 -20.87890625 33.98828125 C-20.83056641 33.23095703 -20.78222656 32.47363281 -20.73242188 31.69335938 C-20.67634766 30.90767578 -20.62027344 30.12199219 -20.5625 29.3125 C-20.51029297 28.51521484 -20.45808594 27.71792969 -20.40429688 26.89648438 C-20.27480978 24.93063478 -20.13809959 22.96526335 -20 21 C-16.23508833 19.74502944 -12.72793525 19.89338352 -8.8125 19.9375 C-6.234375 19.958125 -3.65625 19.97875 -1 20 C-0.67 13.4 -0.34 6.8 0 0 Z " fill="#020101" transform="translate(209,117)"/>
<path d="M0 0 C18.1313459 -0.06312044 36.24698334 0.18832702 54.375 0.5 C64.15125 0.665 73.9275 0.83 84 1 C84 21.46 84 41.92 84 63 C76.74 63 69.48 63 62 63 C62 69.93 62 76.86 62 84 C55.4 84 48.8 84 42 84 C42 90.93 42 97.86 42 105 C28.14 105 14.28 105 0 105 C0 98.07 0 91.14 0 84 C-6.93 84 -13.86 84 -21 84 C-21 77.07 -21 70.14 -21 63 C-14.4 63 -7.8 63 -1 63 C-1 49.47 -1 35.94 -1 22 C-7.93 22 -14.86 22 -22 22 C-22 21.67 -22 21.34 -22 21 C-14.74 21 -7.48 21 0 21 C0 14.07 0 7.14 0 0 Z " fill="#FD577B" transform="translate(398,325)"/>
<path d="M0 0 C13.53 0 27.06 0 41 0 C41 6.93 41 13.86 41 21 C54.86 21 68.72 21 83 21 C83 27.93 83 34.86 83 42 C48.68 42 14.36 42 -21 42 C-21 35.07 -21 28.14 -21 21 C-14.07 21 -7.14 21 0 21 C0 14.07 0 7.14 0 0 Z " fill="#F7577A" transform="translate(211,388)"/>
<path d="M0 0 C20 0 20 0 22 1 C22 62.71 22 124.42 22 188 C22.66 188.33 23.32 188.66 24 189 C23.01 189 22.02 189 21 189 C20.26526824 185.05107316 19.87394062 181.31651677 19.87060547 177.30175781 C19.86745331 176.20752502 19.86430115 175.11329224 19.86105347 173.98590088 C19.8630777 172.82008484 19.86510193 171.6542688 19.8671875 170.453125 C19.86575241 168.64180084 19.86575241 168.64180084 19.86428833 166.79388428 C19.86360925 164.24881945 19.86544454 161.70375288 19.86962891 159.15869141 C19.87499961 155.25028638 19.86966512 151.3419953 19.86328125 147.43359375 C19.86394171 144.96093725 19.86522222 142.48828081 19.8671875 140.015625 C19.86516327 138.84171204 19.86313904 137.66779907 19.86105347 136.45831299 C19.86420563 135.37668884 19.86735779 134.2950647 19.87060547 133.18066406 C19.87140106 132.22613342 19.87219666 131.27160278 19.87301636 130.28814697 C20 128 20 128 21 126 C14.07 126 7.14 126 0 126 C0 84.42 0 42.84 0 0 Z " fill="#040303" transform="translate(168,158)"/>
<path d="M0 0 C14.85 0 29.7 0 45 0 C45 6.6 45 13.2 45 20 C50.94 20 56.88 20 63 20 C63 13.4 63 6.8 63 0 C97.98 0 132.96 0 169 0 C169 0.33 169 0.66 169 1 C134.35 1 99.7 1 64 1 C64.33 7.6 64.66 14.2 65 21 C65.05858607 24.92761015 65.10156941 28.82646271 65.0625 32.75 C65.041875 35.8025 65.02125 38.855 65 42 C58.07 42 51.14 42 44 42 C44 48.93 44 55.86 44 63 C36.74 63 29.48 63 22 63 C22 56.07 22 49.14 22 42 C28.93 42 35.86 42 43 42 C43 35.07 43 28.14 43 21 C29.47 21 15.94 21 2 21 C2 27.93 2 34.86 2 42 C-4.6 42 -11.2 42 -18 42 C-18 83.25 -18 124.5 -18 167 C-18.33 167 -18.66 167 -19 167 C-19.00423194 166.36462437 -19.00846388 165.72924873 -19.01282406 165.07461929 C-19.11610773 149.61786059 -19.22474209 134.16115016 -19.33933926 118.70447159 C-19.39462829 111.22975469 -19.44810318 103.75503302 -19.49731445 96.28027344 C-19.54020922 89.76563312 -19.58650054 83.25102733 -19.63687855 76.73644042 C-19.66343686 73.28670962 -19.68828882 69.83698548 -19.70907402 66.38721466 C-19.73233514 62.53706803 -19.76317899 58.68700256 -19.79467773 54.83691406 C-19.8004332 53.69180359 -19.80618866 52.54669312 -19.81211853 51.36688232 C-19.82190735 50.31802856 -19.83169617 49.2691748 -19.84178162 48.1885376 C-19.84823417 47.27780613 -19.85468672 46.36707466 -19.8613348 45.42874527 C-19.99172062 43.14501472 -20.40217928 41.19847425 -21 39 C-21.02172852 36.89355469 -21.02172852 36.89355469 -20.87890625 34.671875 C-20.83056641 33.87265625 -20.78222656 33.0734375 -20.73242188 32.25 C-20.67634766 31.425 -20.62027344 30.6 -20.5625 29.75 C-20.51029297 28.90953125 -20.45808594 28.0690625 -20.40429688 27.203125 C-20.27504311 25.1350648 -20.13825726 23.0674778 -20 21 C-16.23508833 19.74502944 -12.72793525 19.89338352 -8.8125 19.9375 C-6.234375 19.958125 -3.65625 19.97875 -1 20 C-0.67 13.4 -0.34 6.8 0 0 Z " fill="#433037" transform="translate(209,117)"/>
<path d="M0 0 C6.6 0 13.2 0 20 0 C20 6.93 20 13.86 20 21 C33.86 21 47.72 21 62 21 C62 27.93 62 34.86 62 42 C47.81 42 33.62 42 19 42 C19 35.07 19 28.14 19 21 C5.47 21 -8.06 21 -22 21 C-22 27.93 -22 34.86 -22 42 C-28.93 42 -35.86 42 -43 42 C-43 48.93 -43 55.86 -43 63 C-32.11 63 -21.22 63 -10 63 C-10 63.33 -10 63.66 -10 64 C-20.89 64 -31.78 64 -43 64 C-43 70.27 -43 76.54 -43 83 C-1.75 83 39.5 83 82 83 C82 83.33 82 83.66 82 84 C40.42 84 -1.16 84 -44 84 C-44.9584336 81.12469919 -45.06656387 79.70950069 -44.87890625 76.76953125 C-44.81425171 75.68442261 -44.81425171 75.68442261 -44.74829102 74.57739258 C-44.68697998 73.66497803 -44.62566895 72.75256348 -44.5625 71.8125 C-44.2840625 67.4503125 -44.2840625 67.4503125 -44 63 C-50.93 63 -57.86 63 -65 63 C-65 55.74 -65 48.48 -65 41 C-58.73 41 -52.46 41 -46 41 C-45.11360611 38.34081834 -44.82010975 36.51935359 -44.68359375 33.76953125 C-44.64548584 33.04612549 -44.60737793 32.32271973 -44.56811523 31.57739258 C-44.50346069 30.20877075 -44.50346069 30.20877075 -44.4375 28.8125 C-44.293125 25.904375 -44.14875 22.99625 -44 20 C-37.4 20.33 -30.8 20.66 -24 21 C-23.67 20.34 -23.34 19.68 -23 19 C-9.14 19.33 4.72 19.66 19 20 C19 13.73 19 7.46 19 1 C12.73 1 6.46 1 0 1 C0 0.67 0 0.34 0 0 Z " fill="#391E24" transform="translate(233,367)"/>
<path d="M0 0 C34.32 0 68.64 0 104 0 C104 6.27 104 12.54 104 19 C52.52 19.495 52.52 19.495 0 20 C0 13.4 0 6.8 0 0 Z " fill="#010000" transform="translate(273,118)"/>
<path d="M0 0 C6.93 0 13.86 0 21 0 C21 20.79 21 41.58 21 63 C14.07 63 7.14 63 0 63 C0 42.21 0 21.42 0 0 Z " fill="#231D21" transform="translate(294,179)"/>
<path d="M0 0 C6.93 0.33 13.86 0.66 21 1 C21 21.13 21 41.26 21 62 C10.605 62.495 10.605 62.495 0 63 C0 42.21 0 21.42 0 0 Z " fill="#000000" transform="translate(482,242)"/>
<path d="M0 0 C6.6 0 13.2 0 20 0 C20 20.46 20 40.92 20 62 C13.4 62 6.8 62 0 62 C0 41.54 0 21.08 0 0 Z " fill="#211D20" transform="translate(336,179)"/>
<path d="M0 0 C20.46 0.33 40.92 0.66 62 1 C62 7.27 62 13.54 62 20 C41.54 19.67 21.08 19.34 0 19 C0 12.73 0 6.46 0 0 Z " fill="#020101" transform="translate(420,305)"/>
<path d="M0 0 C18.1313459 -0.06312044 36.24698334 0.18832702 54.375 0.5 C64.15125 0.665 73.9275 0.83 84 1 C84 21.46 84 41.92 84 63 C76.74 63 69.48 63 62 63 C62 69.93 62 76.86 62 84 C55.4 84 48.8 84 42 84 C42 90.93 42 97.86 42 105 C28.14 105 14.28 105 0 105 C0 98.07 0 91.14 0 84 C-6.93 84 -13.86 84 -21 84 C-21 77.07 -21 70.14 -21 63 C-14.4 63 -7.8 63 -1 63 C-1 49.47 -1 35.94 -1 22 C-7.93 22 -14.86 22 -22 22 C-22 21.67 -22 21.34 -22 21 C-14.74 21 -7.48 21 0 21 C0 14.07 0 7.14 0 0 Z M23 2 C22.67 8.6 22.34 15.2 22 22 C14.74 22 7.48 22 0 22 C0 35.86 0 49.72 0 64 C-6.27 64 -12.54 64 -19 64 C-19.020625 66.59875 -19.04125 69.1975 -19.0625 71.875 C-19.071604 72.69210449 -19.08070801 73.50920898 -19.09008789 74.35107422 C-19.19150641 78.30366126 -19.19150641 78.30366126 -18 82 C-12.06 82 -6.12 82 0 82 C0.33 89.26 0.66 96.52 1 104 C14.2 104 27.4 104 41 104 C41 96.74 41 89.48 41 82 C47.6 82 54.2 82 61 82 C61.33 75.4 61.66 68.8 62 62 C67.99258801 59.00370599 75.31039843 60.37164453 82 60 C82 40.86 82 21.72 82 2 C62.53 2 43.06 2 23 2 Z " fill="#D2607D" transform="translate(398,325)"/>
<path d="M0 0 C19.8 0 39.6 0 60 0 C60 7.59 60 15.18 60 23 C46.47 23 32.94 23 19 23 C19 15.74 19 8.48 19 1 C12.73 1 6.46 1 0 1 C0 0.67 0 0.34 0 0 Z " fill="#FC577C" transform="translate(337,241)"/>
<path d="M0 0 C13.53 0 27.06 0 41 0 C41 7.59 41 15.18 41 23 C27.47 23 13.94 23 0 23 C0 15.41 0 7.82 0 0 Z " fill="#FC577C" transform="translate(252,241)"/>
<path d="M0 0 C1.11084961 0.02030273 1.11084961 0.02030273 2.24414062 0.04101562 C4.05891075 0.07614021 5.87330288 0.12994028 7.6875 0.1875 C9.32233632 3.45717263 8.82920489 7.06783115 8.8203125 10.66015625 C8.82174759 11.91752846 8.82174759 11.91752846 8.82321167 13.20030212 C8.8238926 14.97313512 8.82204434 16.74597061 8.81787109 18.51879883 C8.81251493 21.24240677 8.81782243 23.96585029 8.82421875 26.68945312 C8.82355808 28.40885453 8.82227716 30.12825584 8.8203125 31.84765625 C8.82233673 32.66742447 8.82436096 33.48719269 8.82644653 34.33180237 C8.80245507 40.07254493 8.80245507 40.07254493 7.6875 41.1875 C6.12577255 41.27435603 4.56020656 41.29452219 2.99609375 41.28515625 C2.05185547 41.28193359 1.10761719 41.27871094 0.13476562 41.27539062 C-0.85845703 41.26701172 -1.85167969 41.25863281 -2.875 41.25 C-3.87208984 41.24548828 -4.86917969 41.24097656 -5.89648438 41.23632812 C-8.36854849 41.22450007 -10.84049518 41.20801849 -13.3125 41.1875 C-13.43603289 35.83073369 -13.52680573 30.47479474 -13.5871582 25.11694336 C-13.61231397 23.29420533 -13.64644285 21.47156828 -13.68969727 19.64916992 C-13.75030546 17.03018307 -13.77869761 14.41252847 -13.80078125 11.79296875 C-13.82658768 10.97724899 -13.8523941 10.16152924 -13.87898254 9.3210907 C-13.88012695 7.01635742 -13.88012695 7.01635742 -13.3125 3.1875 C-9.27727661 -0.38477824 -5.15341533 -0.17960965 0 0 Z " fill="#020001" transform="translate(453.3125,179.8125)"/>
<path d="M0 0 C6.93 0 13.86 0 21 0 C21 13.2 21 26.4 21 40 C14.07 40 7.14 40 0 40 C0 26.8 0 13.6 0 0 Z " fill="#1F191C" transform="translate(315,264)"/>
<path d="M0 0 C13.86 0.33 27.72 0.66 42 1 C42 7.27 42 13.54 42 20 C28.14 20 14.28 20 0 20 C0 13.4 0 6.8 0 0 Z " fill="#010001" transform="translate(377,138)"/>
<path d="M0 0 C13.53 0 27.06 0 41 0 C41 6.27 41 12.54 41 19 C27.47 19.33 13.94 19.66 0 20 C0 13.4 0 6.8 0 0 Z " fill="#010000" transform="translate(211,118)"/>
<path d="M0 0 C13.53 0 27.06 0 41 0 C41 6.27 41 12.54 41 19 C27.47 19 13.94 19 0 19 C0 12.73 0 6.46 0 0 Z " fill="#030001" transform="translate(253,389)"/>
<path d="M0 0 C6.93 0 13.86 0 21 0 C21 6.6 21 13.2 21 20 C14.07 20 7.14 20 0 20 C0 13.4 0 6.8 0 0 Z " fill="#1B191A" transform="translate(398,326)"/>
<path d="M0 0 C6.93 0 13.86 0 21 0 C21 6.6 21 13.2 21 20 C14.07 20 7.14 20 0 20 C0 13.4 0 6.8 0 0 Z " fill="#030102" transform="translate(461,222)"/>
<path d="M0 0 C6.93 0 13.86 0 21 0 C21 6.6 21 13.2 21 20 C14.07 20 7.14 20 0 20 C0 13.4 0 6.8 0 0 Z " fill="#050104" transform="translate(231,159)"/>
<path d="M0 0 C3.29215238 -0.08066072 6.58234578 -0.14033374 9.875 -0.1875 C10.81214844 -0.21263672 11.74929688 -0.23777344 12.71484375 -0.26367188 C14.05869141 -0.27817383 14.05869141 -0.27817383 15.4296875 -0.29296875 C16.25710449 -0.3086792 17.08452148 -0.32438965 17.93701172 -0.34057617 C18.61779785 -0.22818604 19.29858398 -0.1157959 20 0 C22.03120707 3.04681061 22.24659875 3.60118324 22.1953125 7.01171875 C22.19031738 7.69451904 22.18532227 8.37731934 22.18017578 9.08081055 C22.15286377 10.37112183 22.15286377 10.37112183 22.125 11.6875 C22.08375 14.430625 22.0425 17.17375 22 20 C14.74 19.67 7.48 19.34 0 19 C0 12.73 0 6.46 0 0 Z " fill="#030000" transform="translate(461,389)"/>
<path d="M0 0 C0 6.6 0 13.2 0 20 C-6.93 20 -13.86 20 -21 20 C-21 13.73 -21 7.46 -21 1 C-17.68751483 0.83303405 -14.37501297 0.66641274 -11.0625 0.5 C-10.11697266 0.45230469 -9.17144531 0.40460938 -8.19726562 0.35546875 C-7.29814453 0.31035156 -6.39902344 0.26523438 -5.47265625 0.21875 C-4.64000244 0.17685547 -3.80734863 0.13496094 -2.94946289 0.09179688 C-1.96692123 0.04553067 -0.98363035 0 0 0 Z " fill="#010001" transform="translate(211,138)"/>
<path d="M0 0 C6.6 0 13.2 0 20 0 C20 6.27 20 12.54 20 19 C13.4 19 6.8 19 0 19 C0 12.73 0 6.46 0 0 Z " fill="#020000" transform="translate(190,389)"/>
<path d="M0 0 C6.93 0.33 13.86 0.66 21 1 C21 7.27 21 13.54 21 20 C18.091875 19.855625 15.18375 19.71125 12.1875 19.5625 C10.81887817 19.49784546 10.81887817 19.49784546 9.42260742 19.43188477 C8.69920166 19.39377686 7.9757959 19.35566895 7.23046875 19.31640625 C6.49207764 19.27974854 5.75368652 19.24309082 4.99291992 19.20532227 C3 19 3 19 0 18 C0 12.06 0 6.12 0 0 Z " fill="#020002" transform="translate(252,138)"/>
<path d="M0 0 C6.66666667 0 13.33333333 0 20 0 C20 6.27 20 12.54 20 19 C13.4 19 6.8 19 0 19 C0 12.73 0 6.46 0 0 Z " fill="#010100" transform="translate(169,410)"/>
<path d="M0 0 C6.93 0 13.86 0 21 0 C21 0.33 21 0.66 21 1 C15.06 1.33 9.12 1.66 3 2 C2.67 7.28 2.34 12.56 2 18 C34.67 18 67.34 18 101 18 C101.495 11.565 101.495 11.565 102 5 C102.33 5 102.66 5 103 5 C103 9.95 103 14.9 103 20 C69.01 20 35.02 20 0 20 C0 13.4 0 6.8 0 0 Z " fill="#EA6282" transform="translate(190,409)"/>
<path d="M0 0 C19.8 0 39.6 0 60 0 C60 7.59 60 15.18 60 23 C46.47 23 32.94 23 19 23 C19 15.74 19 8.48 19 1 C12.73 1 6.46 1 0 1 C0 0.67 0 0.34 0 0 Z M20 2 C19.97316013 4.97922593 19.95323963 7.95821295 19.9375 10.9375 C19.92912109 11.78763672 19.92074219 12.63777344 19.91210938 13.51367188 C19.90888672 14.32255859 19.90566406 15.13144531 19.90234375 15.96484375 C19.89710693 16.7137085 19.89187012 17.46257324 19.88647461 18.23413086 C19.80658248 20.02667739 19.80658248 20.02667739 21 21 C23.48589498 21.10092878 25.94338849 21.13971498 28.4296875 21.1328125 C29.17582306 21.13376923 29.92195862 21.13472595 30.69070435 21.13571167 C32.27280766 21.13639355 33.85491375 21.13453873 35.43701172 21.13037109 C37.85781164 21.12503787 40.27842475 21.13030801 42.69921875 21.13671875 C44.23437541 21.13605767 45.76953195 21.13477591 47.3046875 21.1328125 C48.39231888 21.13584885 48.39231888 21.13584885 49.50192261 21.13894653 C52.60814984 21.12448908 55.02977439 20.9900752 58 20 C58 14.39 58 8.78 58 3 C54.82709287 1.41354643 51.41174616 1.87921787 47.9296875 1.90234375 C47.13345978 1.9037587 46.33723206 1.90517365 45.51687622 1.90663147 C42.9695462 1.91223655 40.42230353 1.92478986 37.875 1.9375 C36.14974085 1.94251435 34.42448033 1.94707737 32.69921875 1.95117188 C28.46611209 1.96220763 24.23307086 1.97947564 20 2 Z " fill="#E7698B" transform="translate(337,241)"/>
<path d="M0 0 C13.53 0 27.06 0 41 0 C41 7.59 41 15.18 41 23 C27.47 23 13.94 23 0 23 C0 15.41 0 7.82 0 0 Z M2 3 C0.599811 6.62816269 0.90198848 10.41475583 0.9375 14.25 C0.94652344 15.51328125 0.95554688 16.7765625 0.96484375 18.078125 C0.97644531 19.04234375 0.98804688 20.0065625 1 21 C6.09031755 21.04936158 11.18049643 21.08570105 16.27099609 21.10986328 C18.00344265 21.11993376 19.73587216 21.13359089 21.46826172 21.15087891 C23.95544639 21.17508162 26.44240675 21.18647239 28.9296875 21.1953125 C30.09538773 21.21079636 30.09538773 21.21079636 31.28463745 21.22659302 C33.19125493 21.22699271 35.09731036 21.1223214 37 21 C39.40258361 19.03826494 39.40258361 19.03826494 39.23046875 15.33984375 C39.22647733 13.87233136 39.21172158 12.40481791 39.1875 10.9375 C39.18685547 10.19177734 39.18621094 9.44605469 39.18554688 8.67773438 C39.48822531 5.03982367 39.48822531 5.03982367 38 2 C35.50243196 1.8990997 33.03312358 1.86028234 30.53515625 1.8671875 C29.78664902 1.86623077 29.03814178 1.86527405 28.26695251 1.86428833 C26.68065304 1.86360654 25.09435079 1.86546078 23.50805664 1.86962891 C21.07627091 1.87496976 18.64467051 1.8696878 16.21289062 1.86328125 C14.67447876 1.86394218 13.13606701 1.86522365 11.59765625 1.8671875 C10.50228294 1.86415115 10.50228294 1.86415115 9.38478088 1.86105347 C5.5659548 1.81321117 5.5659548 1.81321117 2 3 Z " fill="#EF698C" transform="translate(252,241)"/>
<path d="M0 0 C1.36239076 2.72478152 1.11969958 4.86840855 1.11352539 7.91845703 C1.11344986 9.15959259 1.11337433 10.40072815 1.11329651 11.67947388 C1.1081895 13.03892049 1.1029735 14.39836669 1.09765625 15.7578125 C1.09579142 17.14500884 1.09436782 18.53220584 1.09336853 19.91940308 C1.08954848 23.57234512 1.07972255 27.22524748 1.06866455 30.87817383 C1.05843944 34.60497501 1.05386855 38.33178259 1.04882812 42.05859375 C1.03809983 49.37241394 1.02102954 56.68620141 1 64 C0.34 64 -0.32 64 -1 64 C-1 43.54 -1 23.08 -1 2 C-7.6 2 -14.2 2 -21 2 C-21 22.13 -21 42.26 -21 63 C-21.33 63 -21.66 63 -22 63 C-22 42.21 -22 21.42 -22 0 C-16.72 0 -11.44 0 -6 0 C-3 -1 -3 -1 0 0 Z " fill="#F1BBD1" transform="translate(357,177)"/>
<path d="M0 0 C14.19 0 28.38 0 43 0 C43 0.33 43 0.66 43 1 C36.07 1 29.14 1 22 1 C22 14.86 22 28.72 22 43 C15.73 43 9.46 43 3 43 C3.33 48.94 3.66 54.88 4 61 C9.94 61 15.88 61 22 61 C22 61.66 22 62.32 22 63 C15.07 63 8.14 63 1 63 C1 56.07 1 49.14 1 42 C7.6 42 14.2 42 21 42 C21 28.47 21 14.94 21 1 C14.07 1 7.14 1 0 1 C0 0.67 0 0.34 0 0 Z " fill="#A24E61" transform="translate(376,346)"/>
<path d="M0 0 C0.66 0 1.32 0 2 0 C2 6.93 2 13.86 2 21 C-18.13 21 -38.26 21 -59 21 C-59 16.05 -59 11.1 -59 6 C-58.67 6 -58.34 6 -58 6 C-58 10.29 -58 14.58 -58 19 C-50.71568745 18.89207655 -43.43146672 18.78003512 -36.14733219 18.66066074 C-32.76532878 18.60540198 -29.38331676 18.55197744 -26.0012207 18.50268555 C-22.11660573 18.44599054 -18.23214122 18.38142415 -14.34765625 18.31640625 C-12.51800072 18.29133751 -12.51800072 18.29133751 -10.65138245 18.26576233 C-9.53029587 18.24581711 -8.40920929 18.22587189 -7.25415039 18.20532227 C-6.26153702 18.18977798 -5.26892365 18.1742337 -4.24623108 18.15821838 C-2.03025703 18.24881556 -2.03025703 18.24881556 -1 17 C-0.76298761 14.14122091 -0.57780818 11.30116703 -0.4375 8.4375 C-0.37272461 7.22803711 -0.37272461 7.22803711 -0.30664062 5.99414062 C-0.20024738 3.99631195 -0.09959112 1.9981793 0 0 Z " fill="#DCB0C1" transform="translate(354,388)"/>
<path d="M0 0 C0.66 0 1.32 0 2 0 C2 20.46 2 40.92 2 62 C1.01 62 0.02 62 -1 62 C-0.67 41.54 -0.34 21.08 0 0 Z " fill="#39232D" transform="translate(354,179)"/>
<path d="M0 0 C0.66 0 1.32 0 2 0 C2 6.27 2 12.54 2 19 C14.21 19 26.42 19 39 19 C39 13.39 39 7.78 39 2 C39.66 1.34 40.32 0.68 41 0 C41 6.93 41 13.86 41 21 C27.8 21 14.6 21 1 21 C0.67 14.07 0.34 7.14 0 0 Z " fill="#E96283" transform="translate(398,408)"/>
<path d="M0 0 C6.6 0 13.2 0 20 0 C20 6.6 20 13.2 20 20 C17 16 17 16 17 12 C16.01 12 15.02 12 14 12 C13.77213542 10.01432292 13.54427083 8.02864583 13.31640625 6.04296875 C13.02829265 3.80603607 13.02829265 3.80603607 12 1 C8.04 1 4.08 1 0 1 C0 0.67 0 0.34 0 0 Z " fill="#291E24" transform="translate(191,284)"/>
<path d="M0 0 C0.66 0.33 1.32 0.66 2 1 C2.02888146 4.31248187 2.04675799 7.62493167 2.0625 10.9375 C2.07087891 11.88302734 2.07925781 12.82855469 2.08789062 13.80273438 C2.09272461 15.15141602 2.09272461 15.15141602 2.09765625 16.52734375 C2.10551147 17.77632446 2.10551147 17.77632446 2.11352539 19.05053711 C2 21 2 21 1 22 C-0.4887186 22.08669432 -1.981445 22.10703494 -3.47265625 22.09765625 C-4.37177734 22.09443359 -5.27089844 22.09121094 -6.19726562 22.08789062 C-7.14279297 22.07951172 -8.08832031 22.07113281 -9.0625 22.0625 C-10.01189453 22.05798828 -10.96128906 22.05347656 -11.93945312 22.04882812 C-14.29299531 22.03700128 -16.64650532 22.01906521 -19 22 C-19 28.27 -19 34.54 -19 41 C-12.07 41 -5.14 41 2 41 C2 41.33 2 41.66 2 42 C-5.59 42.33 -13.18 42.66 -21 43 C-20.67 35.74 -20.34 28.48 -20 21 C-16.23508833 19.74502944 -12.72793525 19.89338352 -8.8125 19.9375 C-6.234375 19.958125 -3.65625 19.97875 -1 20 C-0.67 13.4 -0.34 6.8 0 0 Z " fill="#22191C" transform="translate(209,117)"/>
<path d="M0 0 C0.33 0 0.66 0 1 0 C1 6.27 1 12.54 1 19 C3.97 18.67 6.94 18.34 10 18 C13.01249471 17.89669085 15.98399586 17.95212692 19 18 C19 12.39 19 6.78 19 1 C16.36 1 13.72 1 11 1 C11 0.67 11 0.34 11 0 C14.3 0 17.6 0 21 0 C21 6.6 21 13.2 21 20 C14.07 20 7.14 20 0 20 C0 13.4 0 6.8 0 0 Z " fill="#3D1B22" transform="translate(398,326)"/>
<path d="M0 0 C2.31 0 4.62 0 7 0 C7 0.33 7 0.66 7 1 C5.35 1 3.7 1 2 1 C2.12568359 2.53720703 2.12568359 2.53720703 2.25390625 4.10546875 C2.35712798 5.46611879 2.45997265 6.82679746 2.5625 8.1875 C2.61857422 8.86103516 2.67464844 9.53457031 2.73242188 10.22851562 C3.00963763 14.017131 2.96511161 17.31827794 2 21 C0.46279297 21.09087891 0.46279297 21.09087891 -1.10546875 21.18359375 C-2.46615695 21.26805026 -3.82683343 21.35269567 -5.1875 21.4375 C-5.86103516 21.47681641 -6.53457031 21.51613281 -7.22851562 21.55664062 C-10.94298273 21.7921922 -14.32895494 22.26579099 -18 23 C-18.33 28.61 -18.66 34.22 -19 40 C-19.33 40 -19.66 40 -20 40 C-20 33.4 -20 26.8 -20 20 C-13.4 20 -6.8 20 0 20 C0 13.4 0 6.8 0 0 Z " fill="#F1B8CF" transform="translate(274,139)"/>
<path d="M0 0 C13.53 0 27.06 0 41 0 C41 0.33 41 0.66 41 1 C39.49433472 1.03758423 39.49433472 1.03758423 37.95825195 1.07592773 C34.2214764 1.17035296 30.48487157 1.27048686 26.74829102 1.37231445 C25.13342289 1.41553083 23.51851298 1.45721489 21.90356445 1.49731445 C19.57750883 1.55534048 17.25166096 1.61894029 14.92578125 1.68359375 C14.20787918 1.70030624 13.48997711 1.71701874 12.75032043 1.73423767 C8.99042876 1.84446668 5.72315267 2.25536947 2 3 C2 8.61 2 14.22 2 20 C1.34 20 0.68 20 0 20 C0 13.4 0 6.8 0 0 Z " fill="#D35776" transform="translate(211,388)"/>
<path d="M0 0 C5.94 0 11.88 0 18 0 C17.01 0.33 16.02 0.66 15 1 C15 2.32 15 3.64 15 5 C10.05 5.33 5.1 5.66 0 6 C0 4.02 0 2.04 0 0 Z " fill="#22191E" transform="translate(231,159)"/>
<path d="M0 0 C0.99 0.66 1.98 1.32 3 2 C3 2.99 3 3.98 3 5 C2.34 5 1.68 5 1 5 C0.34 7.31 -0.32 9.62 -1 12 C-1.33 12 -1.66 12 -2 12 C-2 8.7 -2 5.4 -2 2 C-8.93 2 -15.86 2 -23 2 C-23 1.67 -23 1.34 -23 1 C-21.44539063 0.90912109 -21.44539063 0.90912109 -19.859375 0.81640625 C-18.48957127 0.73196629 -17.11978025 0.64732003 -15.75 0.5625 C-15.06808594 0.52318359 -14.38617188 0.48386719 -13.68359375 0.44335938 C-1.00531859 -0.35672595 -1.00531859 -0.35672595 0 0 Z " fill="#EBB3C9" transform="translate(317,177)"/>
<path d="M0 0 C6.93 0 13.86 0 21 0 C21 0.33 21 0.66 21 1 C15.06 1.33 9.12 1.66 3 2 C2.75040254 7.22011328 2.75040254 7.22011328 2.52197266 12.44116211 C2.41972413 14.2994481 2.21279319 16.15110827 2 18 C1.34 18.33 0.68 18.66 0 19 C0 12.73 0 6.46 0 0 Z " fill="#E45E7F" transform="translate(190,409)"/>
<path d="M0 0 C0.66 0 1.32 0 2 0 C2 6.93 2 13.86 2 21 C8.93 21 15.86 21 23 21 C22.67 21.99 22.34 22.98 22 24 C22 23.34 22 22.68 22 22 C19.43663746 22.11446272 16.87486555 22.24119501 14.3125 22.375 C13.2306543 22.42140625 13.2306543 22.42140625 12.12695312 22.46875 C11.42119141 22.50742188 10.71542969 22.54609375 9.98828125 22.5859375 C9.02208862 22.63306885 9.02208862 22.63306885 8.03637695 22.68115234 C5.43223699 23.0112553 5.43223699 23.0112553 1 25 C0.67 16.75 0.34 8.5 0 0 Z " fill="#171314" transform="translate(439,158)"/>
<path d="M0 0 C2.64 0 5.28 0 8 0 C5 2 5 2 2 2 C2 7.61 2 13.22 2 19 C1.34 19.33 0.68 19.66 0 20 C0 13.4 0 6.8 0 0 Z M-21 20 C-14.07 20 -7.14 20 0 20 C0 20.33 0 20.66 0 21 C-6.93 21 -13.86 21 -21 21 C-21 20.67 -21 20.34 -21 20 Z " fill="#EFB7CD" transform="translate(212,139)"/>
<path d="M0 0 C0.99 0.33 1.98 0.66 3 1 C3 1.99 3 2.98 3 4 C-3.6 4 -10.2 4 -17 4 C-16.67 3.34 -16.34 2.68 -16 2 C-13.4736235 1.71371668 -11.03433175 1.53282808 -8.5 1.4375 C-3.87778611 1.64705349 -3.87778611 1.64705349 0 0 Z " fill="#DFB1C3" transform="translate(208,280)"/>
<path d="M0 0 C0 6.6 0 13.2 0 20 C-1.65 20 -3.3 20 -5 20 C-4.26523438 19.19755859 -4.26523438 19.19755859 -3.515625 18.37890625 C-1.59510544 15.36448251 -1.66212377 13.48330589 -1.75 9.9375 C-1.76546875 8.89464844 -1.7809375 7.85179687 -1.796875 6.77734375 C-1.89167377 3.91466716 -1.89167377 3.91466716 -3 1 C-1 0 -1 0 0 0 Z " fill="#0F0109" transform="translate(211,138)"/>
<path d="M0 0 C0.33 0 0.66 0 1 0 C1 6.27 1 12.54 1 19 C-0.65 19 -2.3 19 -4 19 C-3.525625 18.278125 -3.05125 17.55625 -2.5625 16.8125 C0.06850117 11.68701187 -0.24258815 5.63808327 0 0 Z " fill="#F6BED5" transform="translate(250,139)"/>
<path d="M0 0 C6.27 0 12.54 0 19 0 C18.67 1.32 18.34 2.64 18 4 C17.01 3.34 16.02 2.68 15 2 C12.41114829 1.70008931 9.90850918 1.49134775 7.3125 1.375 C6.2596582 1.31699219 6.2596582 1.31699219 5.18554688 1.2578125 C3.45745345 1.1637666 1.72876325 1.0808032 0 1 C0 0.67 0 0.34 0 0 Z " fill="#301620" transform="translate(295,179)"/>
<path d="M0 0 C0.66 0 1.32 0 2 0 C1.67 0.99 1.34 1.98 1 3 C-4.94 3 -10.88 3 -17 3 C-17 2.67 -17 2.34 -17 2 C-15.85660156 1.93941406 -14.71320313 1.87882813 -13.53515625 1.81640625 C-12.04425695 1.73201572 -10.55337225 1.64736698 -9.0625 1.5625 C-8.30775391 1.52318359 -7.55300781 1.48386719 -6.77539062 1.44335938 C-3.08055813 1.55961976 -3.08055813 1.55961976 0 0 Z " fill="#1B191A" transform="translate(209,136)"/>
<path d="M0 0 C0 1.65 0 3.3 0 5 C-1.32 4.34 -2.64 3.68 -4 3 C-4.33 3.66 -4.66 4.32 -5 5 C-5 3.68 -5 2.36 -5 1 C-2 0 -2 0 0 0 Z " fill="#F05C7F" transform="translate(293,409)"/>
</svg>
